<svg xmlns="http://www.w3.org/2000/svg" viewBox="0 0 250 160">
  <path d="M41,92.50 L42,91.60 L43,90.67 L44,89.71 L45,87.86 L46,86.00 L47,84.14 L48,82.29 L49,80.43 L50,78.71 L51,77.00 L52,75.43 L53,73.86 L54,72.14 L55,70.57 L56,69.14 L57,67.57 L58,66.14 L59,64.71 L60,63.43 L61,62.14 L62,60.86 L63,59.57 L64,58.43 L65,57.29 L66,56.14 L67,55.00 L68,54.00 L69,53.00 L70,52.14 L71,51.29 L72,50.43 L73,49.57 L74,48.71 L75,48.00 L76,47.29 L77,46.43 L78,45.57 L79,44.86 L80,44.14 L81,43.43 L82,42.71 L83,42.00 L84,41.43 L85,40.86 L86,40.29 L87,39.71 L88,39.29 L89,38.71 L90,38.29 L91,37.71 L92,37.29 L93,36.71 L94,36.29 L95,35.86 L96,35.43 L97,35.00 L98,34.71 L99,34.43 L100,34.14 L101,33.86 L102,33.57 L103,33.43 L104,33.29 L105,33.14 L106,33.00 L107,32.86 L108,32.71 L109,32.57 L110,32.43 L111,32.29 L112,32.14 L113,32.00 L114,32.00 L115,32.00 L116,32.00 L117,32.00 L118,32.00 L119,32.00 L120,32.00 L121,32.00 L122,32.00 L123,32.00 L124,32.00 L125,32.00 L126,32.00 L127,32.00 L128,32.00 L129,32.00 L130,32.00 L131,32.00 L132,32.00 L133,32.00 L134,32.00 L135,32.00 L136,32.00 L137,32.00 L138,32.00 L139,32.00 L140,32.00 L141,32.00 L142,32.00 L143,32.00 L144,32.00 L145,32.00 L146,32.00 L147,32.00 L148,32.00 L149,32.00 L150,32.00 L151,32.00 L152,32.00 L153,32.00 L154,32.00 L155,32.00 L156,32.00 L157,32.00 L158,32.00 L159,32.00 L160,32.00 L161,32.00 L162,32.00 L163,32.00 L164,32.00 L165,32.00 L166,32.00 L167,32.00 L168,32.00 L169,32.00 L170,32.00 L171,32.00 L172,32.00 L173,32.00 L174,32.00 L175,32.00 L176,32.00 L177,32.00 L178,32.00 L179,32.00 L180,32.00 L181,32.00 L182,32.00 L183,32.00 L184,32.00 L185,32.00 L186,32.00 L187,32.00 L188,32.00 L189,32.00 L190,32.00 L191,32.00 L192,32.00 L193,32.00 L194,32.00 L195,32.00 L196,32.00 L197,32.00 L198,32.00 L199,32.00 L200,32.00 L201,32.00 L202,32.00 L203,32.00 L204,32.00 L205,32.00 L206,32.00 L207,32.00 L208,32.00 L209,32.00 L210,32.00 L211,32.00 L212,32.00 L213,32.00 L214,32.00 L215,32.00 L216,32.00 L216,36.75 L215,37.60 L214,38.33 L213,39.00 L212,40.57 L211,42.00 L210,43.29 L209,44.57 L208,45.71 L207,46.86 L206,48.00 L205,49.00 L204,50.00 L203,51.00 L202,52.00 L201,53.00 L200,53.86 L199,54.71 L198,55.57 L197,56.43 L196,57.14 L195,57.86 L194,58.43 L193,59.14 L192,59.71 L191,60.29 L190,60.71 L189,61.29 L188,61.71 L187,62.14 L186,62.57 L185,63.00 L184,63.43 L183,63.86 L182,64.14 L181,64.57 L180,65.00 L179,65.29 L178,65.57 L177,65.86 L176,66.14 L175,66.43 L174,66.57 L173,66.71 L172,66.86 L171,67.00 L170,67.14 L169,67.29 L168,67.43 L167,67.57 L166,67.71 L165,67.86 L164,68.00 L163,68.00 L162,68.00 L161,68.00 L160,68.00 L159,68.00 L158,68.00 L157,68.00 L156,68.00 L155,68.00 L154,68.00 L153,68.00 L152,68.00 L151,68.00 L150,68.00 L149,68.00 L148,68.00 L147,68.00 L146,68.00 L145,68.00 L144,68.00 L143,68.00 L142,68.00 L141,68.00 L140,68.00 L139,68.00 L138,68.00 L137,68.00 L136,68.00 L135,68.00 L134,68.00 L133,68.00 L132,68.00 L131,68.00 L130,68.00 L129,68.00 L128,68.00 L127,68.00 L126,68.00 L125,68.00 L124,68.00 L123,68.00 L122,68.00 L121,68.00 L120,68.00 L119,68.00 L118,68.00 L117,68.00 L116,68.00 L115,68.00 L114,68.00 L113,68.00 L112,68.00 L111,68.00 L110,68.00 L109,68.00 L108,68.00 L107,68.00 L106,68.00 L105,68.00 L104,68.00 L103,68.00 L102,68.00 L101,68.00 L100,68.00 L99,68.00 L98,68.00 L97,68.00 L96,68.00 L95,68.14 L94,68.29 L93,68.43 L92,68.57 L91,68.71 L90,69.00 L89,69.29 L88,69.43 L87,69.71 L86,70.00 L85,70.29 L84,70.71 L83,71.00 L82,71.43 L81,71.86 L80,72.29 L79,72.71 L78,73.14 L77,73.57 L76,74.00 L75,74.43 L74,75.00 L73,75.43 L72,76.00 L71,76.57 L70,77.14 L69,77.71 L68,78.29 L67,78.71 L66,79.29 L65,79.86 L64,80.43 L63,81.00 L62,81.71 L61,82.43 L60,83.14 L59,83.86 L58,84.57 L57,85.43 L56,86.14 L55,86.86 L54,87.57 L53,88.43 L52,89.14 L51,89.86 L50,90.57 L49,91.43 L48,92.29 L47,93.14 L46,93.86 L45,94.71 L44,95.43 L43,95.83 L42,96.20 L41,96.50 Z" fill="#343A36"/>
  <path d="M41,92.50 L42,91.60 L43,90.67 L44,89.71 L45,87.86 L46,86.00 L47,84.14 L48,82.29 L49,80.43 L50,78.71 L51,77.00 L52,75.43 L53,73.86 L54,72.14 L55,70.57 L56,69.14 L57,67.57 L58,66.14 L59,64.71 L60,63.43 L61,62.14 L62,60.86 L63,59.57 L64,58.43 L65,57.29 L66,56.14 L67,55.00 L68,54.00 L69,53.00 L70,52.14 L71,51.29 L72,50.43 L73,49.57 L74,48.71 L75,48.00 L76,47.29 L77,46.43 L78,45.57 L79,44.86 L80,44.14 L81,43.43 L82,42.71 L83,42.00 L84,41.43 L85,40.86 L86,40.29 L87,39.71 L88,39.29 L89,38.71 L90,38.29 L91,37.71 L92,37.29 L93,36.71 L94,36.29 L95,35.86 L96,35.43 L97,35.00 L98,34.71 L99,34.43 L100,34.14 L101,33.86 L102,33.57 L103,33.43 L104,33.29 L105,33.14 L106,33.00 L107,32.86 L108,32.71 L109,32.57 L110,32.43 L111,32.29 L112,32.14 L113,32.00 L114,32.00 L115,32.00 L116,32.00 L117,32.00 L118,32.00 L119,32.00 L120,32.00 L121,32.00 L122,32.00 L123,32.00 L124,32.00 L125,32.00 L126,32.00 L127,32.00 L128,32.00 L129,32.00 L130,32.00 L131,32.00 L132,32.00 L133,32.00 L134,32.00 L135,32.00 L136,32.00 L137,32.00 L138,32.00 L139,32.00 L140,32.00 L141,32.00 L142,32.00 L143,32.00 L144,32.00 L145,32.00 L146,32.00 L147,32.00 L148,32.00 L149,32.00 L150,32.00 L151,32.00 L152,32.00 L153,32.00 L154,32.00 L155,32.00 L156,32.00 L157,32.00 L158,32.00 L159,32.00 L160,32.00 L161,32.00 L162,32.00 L163,32.00 L164,32.00 L165,32.00 L166,32.00 L167,32.00 L168,32.00 L169,32.00 L170,32.00 L171,32.00 L172,32.00 L173,32.00 L174,32.00 L175,32.00 L176,32.00 L177,32.00 L178,32.00 L179,32.00 L180,32.00 L181,32.00 L182,32.00 L183,32.00 L184,32.00 L185,32.00 L186,32.00 L187,32.00 L188,32.00 L189,32.00 L190,32.00 L191,32.00 L192,32.00 L193,32.00 L194,32.00 L195,32.00 L196,32.00 L197,32.00 L198,32.00 L199,32.00 L200,32.00 L201,32.00 L202,32.00 L203,32.00 L204,32.00 L205,32.00 L206,32.00 L207,32.00 L208,32.00 L209,32.00 L210,32.00 L211,32.00 L212,32.00 L213,32.00 L214,32.00 L215,32.00 L216,32.00 L216,36.75 L215,37.60 L214,38.33 L213,39.00 L212,40.57 L211,42.00 L210,43.29 L209,44.57 L208,45.71 L207,46.86 L206,48.00 L205,49.00 L204,50.00 L203,51.00 L202,52.00 L201,53.00 L200,53.86 L199,54.71 L198,55.57 L197,56.43 L196,57.14 L195,57.86 L194,58.43 L193,59.14 L192,59.71 L191,60.29 L190,60.71 L189,61.29 L188,61.71 L187,62.14 L186,62.57 L185,63.00 L184,63.43 L183,63.86 L182,64.14 L181,64.57 L180,65.00 L179,65.29 L178,65.57 L177,65.86 L176,66.14 L175,66.43 L174,66.57 L173,66.71 L172,66.86 L171,67.00 L170,67.14 L169,67.29 L168,67.43 L167,67.57 L166,67.71 L165,67.86 L164,68.00 L163,68.00 L162,68.00 L161,68.00 L160,68.00 L159,68.00 L158,68.00 L157,68.00 L156,68.00 L155,68.00 L154,68.00 L153,68.00 L152,68.00 L151,68.00 L150,68.00 L149,68.00 L148,68.00 L147,68.00 L146,68.00 L145,68.00 L144,68.00 L143,68.00 L142,68.00 L141,68.00 L140,68.00 L139,68.00 L138,68.00 L137,68.00 L136,68.00 L135,68.00 L134,68.00 L133,68.00 L132,68.00 L131,68.00 L130,68.00 L129,68.00 L128,68.00 L127,68.00 L126,68.00 L125,68.00 L124,68.00 L123,68.00 L122,68.00 L121,68.00 L120,68.00 L119,68.00 L118,68.00 L117,68.00 L116,68.00 L115,68.00 L114,68.00 L113,68.00 L112,68.00 L111,68.00 L110,68.00 L109,68.00 L108,68.00 L107,68.00 L106,68.00 L105,68.00 L104,68.00 L103,68.00 L102,68.00 L101,68.00 L100,68.00 L99,68.00 L98,68.00 L97,68.00 L96,68.00 L95,68.14 L94,68.29 L93,68.43 L92,68.57 L91,68.71 L90,69.00 L89,69.29 L88,69.43 L87,69.71 L86,70.00 L85,70.29 L84,70.71 L83,71.00 L82,71.43 L81,71.86 L80,72.29 L79,72.71 L78,73.14 L77,73.57 L76,74.00 L75,74.43 L74,75.00 L73,75.43 L72,76.00 L71,76.57 L70,77.14 L69,77.71 L68,78.29 L67,78.71 L66,79.29 L65,79.86 L64,80.43 L63,81.00 L62,81.71 L61,82.43 L60,83.14 L59,83.86 L58,84.57 L57,85.43 L56,86.14 L55,86.86 L54,87.57 L53,88.43 L52,89.14 L51,89.86 L50,90.57 L49,91.43 L48,92.29 L47,93.14 L46,93.86 L45,94.71 L44,95.43 L43,95.83 L42,96.20 L41,96.50 Z" fill="#3FC952" transform="translate(-5, 39.3)"/>
</svg>